# xmcd
#
# Track frame offsets:
#	150
#	14076
#	31629
#	47468
#	62829
#	76531
#	90082
#	108423
#	121696
#	134849
#	158136
#	171121
#	191067
#	210140
#
# Disc length: 2961 seconds
#
# Revision: 0
# Processed by: cddbd v1.5.1PL2 Copyright (c) Steve Scherf et al.
# Submitted via: dBpowerAMP V4.0
#
DISCID=a30b8f0e
DTITLE=Bryan Sutton - Not Too Far From The Tree
DYEAR=2006
DGENRE=Bluegrass
TTITLE0=Forked Deer
TTITLE1=Bully Of The Town
TTITLE2=The Nine Pound Hammer
TTITLE3=Lonesome Fiddle Blues
TTITLE4=Billy In The Lowground
TTITLE5=Stoney Creek
TTITLE6=The Old Spinning Wheel
TTITLE7=Big Sciota
TTITLE8=Whiskey Before Breakfast
TTITLE9=Bonaparte's Retreat
TTITLE10=Give Me The Roses
TTITLE11=Carroll County Blues
TTITLE12=Dusty Miller
TTITLE13=Ragtime Annie
EXTD=
EXTT0=
EXTT1=
EXTT2=
EXTT3=
EXTT4=
EXTT5=
EXTT6=
EXTT7=
EXTT8=
EXTT9=
EXTT10=
EXTT11=
EXTT12=
EXTT13=
PLAYORDER=
